<?xml version="1.0" encoding="UTF-8" standalone="no"?>
<!DOCTYPE svg PUBLIC "-//W3C//DTD SVG 1.1//EN" "http://www.w3.org/Graphics/SVG/1.1/DTD/svg11.dtd">
<svg width="100%" height="100%" viewBox="0 0 500 500" version="1.1" xmlns="http://www.w3.org/2000/svg" xmlns:xlink="http://www.w3.org/1999/xlink" xml:space="preserve" xmlns:serif="http://www.serif.com/" style="fill-rule:evenodd;clip-rule:evenodd;stroke-linejoin:round;stroke-miterlimit:2;">
    <g transform="matrix(1,0,0,1,-47.6,-150.6)">
        <path d="M547.6,400.6C547.6,538.7 435.7,650.6 297.6,650.6C159.5,650.6 47.6,538.7 47.6,400.6C47.6,262.5 159.5,150.6 297.6,150.6C435.7,150.6 547.6,262.5 547.6,400.6Z" style="fill:rgb(236,232,220);"/>
        <path d="M480,503.5C474.2,496.9 467.6,491.9 461,487C443.6,473.8 427.1,459.7 412.2,443.2C405.6,435.8 399,427.5 394,417.6C389,408.5 389.9,399.4 394.8,390.3C396.5,387 398.9,383.7 401.4,380.4C411.3,367.2 422.9,354.8 435.3,343.2C449.4,330 464.2,317.6 477.5,303.5C478.3,302.7 480,301.8 480.8,301L480,300.2L479.2,300.2C477.5,301 475.1,301 473.4,301.9C452.7,309.3 431.2,315.1 409.7,319.3C395.6,321.8 380.8,324.3 365.9,323.4C351.8,322.6 340.3,316.8 332.8,304.4C330.3,300.3 327.8,295.3 325.4,290.3C315.5,266.3 309.7,241.5 303.9,216.7C302.2,209.3 300.6,201.8 298.9,193.5L298.9,195.2C295.6,211.7 293.1,229.1 288.2,245.6C283.2,263.8 277.5,281.2 270,298.5C264.2,310.9 255.9,319.2 241.9,321.7C235.3,323.4 228.7,323.4 222.1,323.4C204.7,322.6 188.2,319.3 171.7,316C153.5,311.9 136.1,306.1 118.8,300.3C118,300.3 116.3,299.5 114.7,299.5C117.2,302 119.7,303.6 122.1,306.1C143.6,324.3 165.1,343.3 184.1,364.8C191.5,372.2 198.2,380.5 203.9,389.6C209.7,400.3 209.7,410.3 203.9,421C202.2,423.5 200.6,426.8 198.9,429.3C189.8,440.9 179.9,451.6 169.1,461.5C155,474.7 139.3,486.3 124.5,498.7C122,500.4 120.4,502 117.9,504.5C119.6,505.3 119.6,504.5 120.4,504.5C139.4,498.7 158.4,492.9 178.3,488C197.3,483.9 216.3,480.6 235.4,483C249.5,483.8 259.4,490.4 266.8,502.8C270.1,508.6 272.6,514.4 274.2,521C283.3,547.5 290.7,575.6 297.4,602.9C297.4,604.6 297.4,606.2 299.1,607.9C299.9,603.8 301.6,600.5 302.4,597.2C307.4,575.7 312.3,555 318.9,534.4C322.2,523.7 325.5,513.7 330.5,503.8C337.9,490.6 349.5,484 364.4,483.1C377.6,482.3 391.7,483.1 404.9,485.6C420.6,488.1 436.3,493 452,497.2C461.8,498.6 470.9,501 480,503.5Z" style="fill:rgb(2,2,3);"/>
    </g>
</svg>
