<?xml version="1.0" encoding="UTF-8" standalone="no"?>
<!DOCTYPE svg PUBLIC "-//W3C//DTD SVG 1.1//EN" "http://www.w3.org/Graphics/SVG/1.1/DTD/svg11.dtd">
<svg width="100%" height="100%" viewBox="0 0 500 500" version="1.1" xmlns="http://www.w3.org/2000/svg" xmlns:xlink="http://www.w3.org/1999/xlink" xml:space="preserve" xmlns:serif="http://www.serif.com/" style="fill-rule:evenodd;clip-rule:evenodd;stroke-linejoin:round;stroke-miterlimit:2;">
    <g transform="matrix(1,0,0,1,-47.65,-170.95)">
        <path d="M547.6,420.9C547.6,559 435.7,670.9 297.6,670.9C159.5,670.9 47.6,559 47.6,420.9C47.6,282.8 159.5,170.9 297.6,170.9C435.7,170.9 547.6,282.9 547.6,420.9Z" style="fill:rgb(96,112,126);"/>
        <g transform="matrix(1,0,0,1,0.142262,0.0952819)">
            <path d="M244.2,249.5C243.4,248.7 242.5,249.5 241.7,249.5C228.5,252.8 215.2,256.9 202.8,263.6C185.4,272.7 168.9,283.4 154.8,295.8C139.1,309.9 125.9,325.6 115.9,344.6C100.2,376 95.2,409.1 100.2,443.8C106,482.7 125,514.1 154.8,539.7C171.3,553.8 190.4,565.3 210.2,574.4C239.1,587.6 268.9,594.2 301.2,593.4C315.3,593.4 329.3,590.9 343.4,587.6C366.6,581.8 388,572.7 409.5,561.1C433.5,547.9 453.3,530.5 468.2,507.4C488.9,476.8 498.8,442.9 496.3,405.7C495.5,392.5 493,379.2 488,366C477.3,336.2 459.1,310.6 435.1,289.9C411.1,270.1 383.8,256.8 354.1,248.6C353.3,248.6 352.4,247.8 351.6,248.6C352.4,249.4 352.4,250.3 353.3,251.1C362.4,264.3 369.8,278.4 374.8,293.3C379.8,309.8 380.6,325.5 374.8,342.1C370.7,354.5 362.4,365.3 352.5,374.3C333.5,392.5 310.3,399.1 284.7,395.8C264,392.5 245.8,383.4 232.6,367.7C216.9,349.5 211.1,328 215.2,304C217.7,286.6 225.1,271.8 235.9,257.7C239.3,255.3 242.6,252.8 244.2,249.5Z" style="fill:rgb(2,2,3);"/>
        </g>
    </g>
</svg>
