<?xml version="1.0" encoding="UTF-8" standalone="no"?>
<!DOCTYPE svg PUBLIC "-//W3C//DTD SVG 1.1//EN" "http://www.w3.org/Graphics/SVG/1.1/DTD/svg11.dtd">
<svg width="100%" height="100%" viewBox="0 0 500 500" version="1.1" xmlns="http://www.w3.org/2000/svg" xmlns:xlink="http://www.w3.org/1999/xlink" xml:space="preserve" xmlns:serif="http://www.serif.com/" style="fill-rule:evenodd;clip-rule:evenodd;stroke-linejoin:round;stroke-miterlimit:2;">
    <g transform="matrix(1,0,0,1,-47.65,-170.95)">
        <path d="M547.6,419.5C547.6,557.6 435.7,669.5 297.6,669.5C159.5,669.5 47.6,557.6 47.6,419.5C47.6,281.4 159.5,169.5 297.6,169.5C435.7,169.5 547.6,281.4 547.6,419.5Z" style="fill:rgb(204,86,155);"/>
        <path d="M451,296.6C450.2,303.2 451.8,308.2 453.5,314C460.1,334.7 463.4,355.3 461.8,376.8C460.1,398.3 452.7,417.3 438.6,433.9C430.3,443.8 419.6,451.3 409.7,458.7C389,474.4 369.2,490.1 351,508.3C327,532.3 308.8,560.4 298.9,593.5C298.1,595.2 298.1,596.8 297.2,598.5C297.2,597.7 296.4,597.7 296.4,596.8C284.8,558.8 264.2,527.3 235.2,500.1C218.7,484.4 200.5,471.2 181.5,457.9C163.3,445.5 149.3,430.6 140.2,409.9C129.5,385.9 129.5,361.9 133.6,336.3C135.3,328 138.6,320.6 141,313.1C142.7,308.1 143.5,303.2 141.8,298.2C141.8,296.5 141,296.5 140.1,297.4L139.3,298.2C126.1,311.4 117.8,328 112,346.2C99.6,385.1 98.8,424.7 107.9,464.4C114.5,492.5 126.9,517.3 147.6,538C179,568.6 216.2,589.3 258.4,601.7C277.4,607.5 297.3,610 317.1,605.8C344.4,600 371.7,591.7 396.5,578.5C431.2,560.3 458.5,533.9 475,497.5C491.5,461.1 496.5,422.3 491.5,382.6C488.2,357 479.1,333 464.2,311.5C460.1,306.5 456,301.5 451,296.6Z" style="fill:rgb(2,2,3);"/>
        <g transform="matrix(1,0,0,1,7.85,0.687431)">
            <path d="M198,309C247.6,337.1 276.5,380.1 292.3,434.7C305.5,381 335.3,338 381.6,305.7L377.5,305.7C370.1,305.7 361.8,305.7 354.3,304.9C332.8,301.6 316.3,290.8 307.2,271C303.1,262.7 300.6,254.5 298.1,245.4C296.4,240.4 294.8,236.3 292.3,231.3C291.5,233 291.5,233.8 290.6,234.6C285.6,248.7 279.9,262.7 270.8,275.1C258.4,292.5 241.9,304 221.2,307.3C212.9,308.2 205.5,309 198,309Z" style="fill:rgb(2,2,3);"/>
        </g>
    </g>
</svg>
