<?xml version="1.0" encoding="UTF-8" standalone="no"?>
<!DOCTYPE svg PUBLIC "-//W3C//DTD SVG 1.1//EN" "http://www.w3.org/Graphics/SVG/1.1/DTD/svg11.dtd">
<svg width="100%" height="100%" viewBox="0 0 500 500" version="1.1" xmlns="http://www.w3.org/2000/svg" xmlns:xlink="http://www.w3.org/1999/xlink" xml:space="preserve" xmlns:serif="http://www.serif.com/" style="fill-rule:evenodd;clip-rule:evenodd;stroke-linejoin:round;stroke-miterlimit:2;">
    <g transform="matrix(1,0,0,1,-47.65,-170.95)">
        <path d="M547.6,421.7C547.6,559.8 435.7,671.7 297.6,671.7C159.5,671.7 47.6,559.8 47.6,421.7C47.6,283.6 159.5,171.7 297.6,171.7C435.7,171.7 547.6,283.6 547.6,421.7Z" style="fill:rgb(231,116,71);"/>
        <g transform="matrix(0.91426,0,0,0.91426,25.5415,36.2021)">
            <path d="M294.5,616L372.2,616C381.3,616 382.1,615.2 382.1,606.1C382.1,599.5 382.1,592 382.9,585.4C385.4,573 392,564.7 405.2,562.2C409.3,561.4 412.6,561.4 416.8,561.4L444.9,561.4C461.4,561.4 475.5,546.5 475.5,530.8L475.5,442.3C475.5,425.8 461.4,411.7 444.9,411.7L359.7,411.7C339,411.7 325.8,424.9 325.8,445.6L325.8,480.3C322.5,492.7 312.6,505.9 296,505.1C290.2,505.1 284.4,504.3 278.6,505.1C264.5,505.9 252.1,519.2 251.3,533.2L251.3,550.6C251.3,563.8 238.1,579.5 224,579.5C216.6,579.5 214.1,582.8 214.9,590.2C214.9,595.2 215.7,600.1 214.9,605.1C214.1,615 216.6,617.5 226.5,617.5C249.8,615.1 273.8,616 294.5,616Z" style="fill:rgb(2,2,3);"/>
            <path d="M214.3,410.9L153.9,410.9C149.8,410.9 144.8,411.7 140.7,413.4C128.3,418.4 120,429.1 120,444L120,491.1C120,504.3 119.2,518.4 120,531.6C120.8,548.1 130.7,558.9 147.3,560.5C164.7,562.2 182.9,561.3 200.2,560.5C219.2,559.7 229.1,548.9 231.6,530.7C232.4,524.1 231.6,517.5 233.3,510C235.8,496.8 242.4,489.3 254.8,487.7C261.4,486.9 267.2,486.9 273.8,486.9C287,486.9 297,480.3 304.4,469.5C306.1,467 306.9,464.5 306.9,462.1C307.7,453.8 306.9,445.6 306.1,437.3C304.4,424.1 288.7,410.8 274.7,411.7C254.8,410.9 235,410.9 214.3,410.9Z" style="fill:rgb(2,2,3);"/>
            <path d="M305.2,310L305.2,374.5C305.2,385.2 310.2,391.9 320.1,394.3C322.6,395.1 324.2,395.1 326.7,395.1L360.6,395.1C363.9,395.1 367.2,395.1 369.7,394.3C376.3,392.6 381.3,388.5 382.9,381.1C383.7,377.8 383.7,373.7 383.7,370.4L383.7,245.6C383.7,233.2 377.1,226.6 366.3,225.8L321.7,225.8C312.6,225.8 306.8,231.6 305.2,239.9C305.2,242.4 304.4,244 304.4,246.5C305.2,267.9 305.2,289.4 305.2,310Z" style="fill:rgb(2,2,3);"/>
            <path d="M211,310L211,376.1C211,386.8 216.8,393.5 226.7,395.1C229.2,395.1 230.8,395.9 233.3,395.9L264.7,395.9C267.2,395.9 269.7,395.9 272.1,395.1C281.2,393.4 287,388.5 288.6,379.4C289.4,376.9 289.4,373.6 289.4,371.1L289.4,246.2C289.4,234.6 283.6,228 272,227.2C257.1,226.4 242.2,226.4 227.4,227.2C218.3,227.2 213.3,233 211.7,242.1L211.7,247.9C211,267.9 211,289.4 211,310Z" style="fill:rgb(2,2,3);"/>
            <path d="M198.6,321.6L198.6,268.7C198.6,257.1 192,249.7 181.2,249.7C167.1,248.9 153.1,248.9 139,249.7C126.6,250.5 121.6,256.3 120.8,268.7L120.8,377.8C121.6,387.7 127.4,394.3 137.3,395.2C152.2,396.9 166.2,396 181.1,395.2C191,394.4 196.8,389.4 198.5,381.1C199.3,378.6 199.3,376.1 199.3,374.5C198.6,356.3 198.6,339 198.6,321.6Z" style="fill:rgb(2,2,3);"/>
            <path d="M395.4,322.4L395.4,377.8C396.2,386.9 402,393.5 411.1,394.3C412.8,394.3 415.2,395.1 416.9,395.1L449.1,395.1C451.6,395.1 454.1,395.1 456.5,394.3C465.6,392.6 470.6,388.5 472.2,379.4C473,376.1 473,372.8 473,369.5L473,267.8C472.2,256.2 465.6,248.8 454,248C440.8,247.2 426.7,247.2 413.5,248C403.6,248.8 397,253.8 395.3,263.7C394.5,266.2 394.5,268.7 394.5,271.1C395.4,288.5 395.4,305.9 395.4,322.4Z" style="fill:rgb(2,2,3);"/>
        </g>
    </g>
</svg>
