<?xml version="1.0" encoding="UTF-8" standalone="no"?>
<!DOCTYPE svg PUBLIC "-//W3C//DTD SVG 1.1//EN" "http://www.w3.org/Graphics/SVG/1.1/DTD/svg11.dtd">
<svg width="100%" height="100%" viewBox="0 0 500 500" version="1.1" xmlns="http://www.w3.org/2000/svg" xmlns:xlink="http://www.w3.org/1999/xlink" xml:space="preserve" xmlns:serif="http://www.serif.com/" style="fill-rule:evenodd;clip-rule:evenodd;stroke-linejoin:round;stroke-miterlimit:2;">
    <g transform="matrix(1,0,0,1,-47.6,-149.7)">
        <path d="M547.6,399.7C547.6,537.8 435.7,649.7 297.6,649.7C159.5,649.7 47.6,537.8 47.6,399.7C47.6,261.6 159.5,149.7 297.6,149.7C435.7,149.7 547.6,261.6 547.6,399.7Z" style="fill:rgb(249,85,49);"/>
        <path d="M402.6,474.1C407.6,474.9 413.3,474.9 418.3,474.9C431.5,474.1 443.1,469.1 454.7,462.5C470.4,454.2 484.5,444.3 498.5,434.4C499.3,433.6 500.2,433.6 501,432.7C501,435.2 500.2,437.7 500.2,439.3C482.8,509.6 442.3,561.7 376.2,592.3C345.6,606.4 312.5,612.1 277.8,610.5C249.7,608.8 223.2,603.9 197.6,592.3C145.5,568.3 112.4,527.8 96.7,473.2C95.9,470.7 95,467.4 94.2,464.9L94.2,463.2C113.2,479.7 133.9,493.8 159.5,501.2C155.4,495.4 151.2,489.6 147.1,483.8C135.5,468.1 126.4,450.7 120.6,431.7C109.9,392 118.9,356.5 145.4,325C153.7,315.9 162.8,307.6 172.7,300.2C173.5,301.9 172.7,302.7 171.9,303.5C166.9,316.7 162.8,330 161.2,344C158.7,369.6 167.8,390.3 188.5,406C190.2,407.7 191.8,408.5 193.5,409.3C195.2,410.1 196.8,411.8 198.5,412.6C198.5,410.9 197.7,410.1 197.7,409.3C192.7,398.6 188.6,387.8 188.6,375.4C187.8,360.5 192.7,346.5 200.2,334.1C208.5,320.9 219.2,310.1 230,299.4C241.6,288.7 254.8,278.7 267.2,268.8C271.3,265.5 274.6,261.4 277.9,258.1C287,247.4 288.6,234.9 284.5,221.7C282,213.4 277.9,206 272.9,199.4C270.4,196.1 268.8,192.8 265.5,188.7C268,189.5 269.6,190.4 271.3,191.2C306.9,204.4 330.8,229.2 344.9,263.1C354,284.6 359,306.9 360.6,330.1C361.4,347.5 360.6,364 358.9,380.5L358.9,385.5C358.9,390.5 360.6,392.1 365.5,392.1C371.3,392.1 377.9,390.4 383.7,388.8C398.6,385.5 413.5,380.5 425.9,372.3C439.1,363.2 448.2,351.6 454,337.6C454.8,335.1 455.7,335.1 457.3,336.8C467.2,348.4 473,361.6 472.2,377.3C471.4,386.4 468.9,395.5 464.8,403.8C457.4,418.7 446.6,431.9 435,444.3C425,455.1 413.4,465 402.6,474.1C404.3,472.4 402.6,472.4 402.6,474.1ZM372.1,479.1C372.1,478.3 371.3,479.1 370.4,478.3C371.2,478.2 372.1,477.4 372.1,479.1C372.9,478.2 372.9,479.1 372.1,479.1ZM372.1,479.1C368,482.4 364.7,485.7 361.4,489C350.7,502.2 349,516.3 354.8,532C357.3,537.8 359.8,542.7 363.1,547.7C367.2,554.3 368.9,560.9 368.1,568.4C366.4,578.3 359.8,584.1 351.6,588.2C341.7,593.2 331.8,596.5 321.8,598.9C290.4,606.3 260.6,602.2 232.5,589C222.6,584 216,576.6 211,567.5C206.9,560.1 207.7,552.6 213.5,546C216.8,541.9 220.1,537.7 223.4,532.8C229.2,522.9 228.4,515.4 220.9,507.2C218.4,504.7 215.9,502.2 213.5,499.8C212.7,499 211.8,499 211.8,497.3C226.7,495.6 246.5,499 251.5,523.8C264.7,515.5 269.7,502.3 261.4,488.2C258.9,484.1 256.4,481.6 253.1,478.3C249.8,475 247.3,470.9 244.8,466.7C240.7,459.3 241.5,451.8 246.5,445.2C249.8,441.1 253.9,437.8 258.1,433.6C271.3,422.9 286.2,416.2 302.7,414.6L303.5,414.6C301.8,416.3 301,417.9 299.4,419.6C296.1,424.6 292,429.5 288.7,435.3C284.6,443.6 285.4,449.4 292,456C293.7,457.7 296.1,460.1 298.6,461.8C308.5,469.2 313.5,479.2 316,491.6C316.8,496.6 316.8,500.7 317.7,506.5C330.9,488.3 348.3,479.2 369.8,478.4C371.2,478.2 372.1,477.4 372.1,479.1Z" style="fill:rgb(2,2,3);"/>
    </g>
</svg>
