<?xml version="1.0" encoding="UTF-8" standalone="no"?>
<!DOCTYPE svg PUBLIC "-//W3C//DTD SVG 1.1//EN" "http://www.w3.org/Graphics/SVG/1.1/DTD/svg11.dtd">
<svg width="100%" height="100%" viewBox="0 0 500 500" version="1.1" xmlns="http://www.w3.org/2000/svg" xmlns:xlink="http://www.w3.org/1999/xlink" xml:space="preserve" xmlns:serif="http://www.serif.com/" style="fill-rule:evenodd;clip-rule:evenodd;stroke-linejoin:round;stroke-miterlimit:2;">
    <g transform="matrix(1,0,0,1,-47.65,-170.95)">
        <path d="M547.6,420.9C547.6,559 435.7,670.9 297.6,670.9C159.5,670.9 47.6,559 47.6,420.9C47.6,282.8 159.5,170.9 297.6,170.9C435.7,170.9 547.6,282.9 547.6,420.9Z" style="fill:rgb(28,163,75);"/>
        <path d="M487.8,454.7C490.3,486.9 476.2,510.9 450.6,529.9C428.3,546.4 403.5,556.4 377.8,563.8C352.2,570.4 325.7,574.5 299.3,577.9C296.8,577.9 295.2,578.7 292.7,578.7C289.4,579.5 287.7,581.2 287.7,585.3C287.7,591.9 289.4,597.7 289.4,604.3C290.2,610.9 291.1,617.5 291.1,625L291.1,629.1C290.3,634.1 288.6,635.7 283.7,634.9C279.6,634.9 276.3,634.1 272.1,633.2C264.7,631.5 256.4,630.7 248.9,629.1C235.7,626.6 229.9,619.2 229.9,605.9C229.9,600.1 229.1,594.3 227.4,589.4C224.1,578.7 217.5,570.4 208.4,564.6C202.6,560.5 196,558 189.4,555.5C172,548.9 156.3,540.6 143.1,529C123.3,510.8 111.7,488.5 108.4,462C104.3,432.2 111.7,405.8 124.9,379.3C140.6,350.4 161.3,326.4 186.9,304.9C219.1,278.4 254.7,256.9 291.9,237.9C314.2,227.2 336.5,217.2 359.7,209C361.4,208.2 362.2,208.2 363.8,207.3C369.6,205.6 373.7,207.3 377,211.4C408.4,253.6 437.4,297.4 459.7,345.3C471.3,370.1 480.4,395.7 486.2,423C487,434 487.8,444.8 487.8,454.7ZM144.7,455.5C144.7,455.5 155.1,451.3 167.1,450.5L167.3,450.5C187.4,448.2 206.9,453.2 224.9,463C229.9,465.5 234.8,468 239,471.3C239.8,472.1 240.7,473 241.5,470.5C244,458.1 246.5,446.5 248.9,434.1C250.6,429.1 248.1,424.2 244.8,420C234.9,407.6 222.5,398.5 207.6,391.9C195.2,386.9 182,383.6 168.7,382C177.8,378.7 187.7,377 197.6,376.2L208.3,376.2C217.4,376.2 226.5,379.5 234.8,382.8C242.2,386.1 249.7,391.1 256.3,396C258,397.7 258.8,396.8 259.6,395.2C262.9,387.8 266.2,380.3 267,372C267.8,362.9 266.2,355.5 260.4,348.8C252.1,338.1 240.6,331.4 228.2,325.6C224.1,323.9 219.9,322.3 215.8,319.8C219.9,318.1 224.1,317.3 228.2,317.3C238.1,316.5 247.2,319.8 255.5,323.9C261.3,326.4 267.1,329.7 272,333.8C273.7,335.5 276.1,336.3 278.6,337.9C282.7,339.6 285.2,338.7 287.7,335.4C289.4,332.9 291,330.4 291.8,328C301.7,307.3 314.1,288.3 328.2,270.9C329,270.1 329,269.2 330.7,268.4C321.6,292.4 312.5,316.4 303.4,340.3C304.2,341.1 305.1,340.3 306.7,339.5C320.8,333.7 333.4,329.9 348.2,328.2C379.7,324.4 398.4,334.5 398.4,334.5C393.4,334.5 389.2,334.8 384.3,335.3C357.8,337.8 332.2,345.2 309.1,359.3C293.4,368.4 285.9,382.5 285.1,400.6L285.1,401.4C330.6,379.9 375.2,379.9 419,406.4C414.9,405.6 410.7,404.7 406.6,403.9C382.7,399.4 358.9,399.6 335.7,405.2C335.7,405.2 315.5,410.3 296.4,419C295.3,419.4 294.3,419.9 293.3,420.4C279.5,427 271.4,438.4 268.6,454.4C266.9,461 266.9,467.6 266.1,475.1L266.1,475.9C266.1,480 267.8,481.7 271.9,480C277.7,477.5 283.5,475.9 289.3,473.4C314.9,465.1 340.6,462.7 367,465.1C376.1,465.9 385.2,465.9 394.3,468.4C403.4,470.9 411.7,475 418.3,481.6C418.3,481.6 384.7,468.5 333.3,481.6C321.1,484.6 309.3,489 297.6,494.8C286.9,500.6 276.9,507.2 267,514.6C261.2,518.7 258.7,524.5 258.7,532C257.9,548.5 256.2,565.1 255.4,580.8L255.4,582.5C254.6,581.7 242.2,559.3 240.5,546.9C239.7,542.8 239.7,538.6 239.7,535.3C242.2,513.8 234.7,497.3 217.4,484C196.7,468.3 173.6,458.4 147.9,455.9C147.1,456.3 146.1,456 144.7,455.5Z" style="fill:rgb(2,2,3);"/>
    </g>
</svg>
