<?xml version="1.0" encoding="UTF-8" standalone="no"?>
<!DOCTYPE svg PUBLIC "-//W3C//DTD SVG 1.1//EN" "http://www.w3.org/Graphics/SVG/1.1/DTD/svg11.dtd">
<svg width="100%" height="100%" viewBox="0 0 500 500" version="1.1" xmlns="http://www.w3.org/2000/svg" xmlns:xlink="http://www.w3.org/1999/xlink" xml:space="preserve" xmlns:serif="http://www.serif.com/" style="fill-rule:evenodd;clip-rule:evenodd;stroke-linejoin:round;stroke-miterlimit:2;">
    <g transform="matrix(1,0,0,1,-47.65,-170.95)">
        <path d="M547.6,420.9C547.6,559 435.7,670.9 297.6,670.9C159.5,670.9 47.6,559 47.6,420.9C47.6,282.8 159.5,170.9 297.6,170.9C435.7,170.9 547.6,282.9 547.6,420.9Z" style="fill:rgb(243,228,18);"/>
        <path d="M321.6,421.5C321.6,422.3 321.6,423.2 320.8,424C306.7,474.4 292.7,524.9 279.5,575.3C274.5,591.8 270.4,609.2 265.4,625.7C264.6,627.4 265.4,628.2 267.1,629C268.8,629 268.8,627.3 268.8,626.5C327.4,527.3 385.3,429 444,329.7C444,328.9 444.8,328 445.7,327.2C392,342.9 338.2,358.6 284.5,374.3C284.5,373.5 285.3,372.6 285.3,371.8C295.2,340.4 305.1,309.8 314.2,278.4C320.8,257.7 327.4,236.2 334,215.6C334,214.8 334.8,213.9 334,213.1C333.2,213.1 332.3,212.3 331.5,213.1C330.7,213.9 330.7,214.8 329.8,214.8C295.9,262.8 261.2,311.5 227.3,359.5C201.7,395.9 176,431.4 150.4,467.8C148.7,469.5 149.6,471.1 151.2,471.9C152,472.7 152.9,471.9 153.7,471.1C184.3,462 214.9,452.1 246.3,443C272,437.2 296,429.8 321.6,421.5Z" style="fill:rgb(2,2,3);"/>
    </g>
</svg>
