<?xml version="1.0" encoding="UTF-8" standalone="no"?>
<!DOCTYPE svg PUBLIC "-//W3C//DTD SVG 1.1//EN" "http://www.w3.org/Graphics/SVG/1.1/DTD/svg11.dtd">
<svg width="100%" height="100%" viewBox="0 0 500 500" version="1.1" xmlns="http://www.w3.org/2000/svg" xmlns:xlink="http://www.w3.org/1999/xlink" xml:space="preserve" xmlns:serif="http://www.serif.com/" style="fill-rule:evenodd;clip-rule:evenodd;stroke-linejoin:round;stroke-miterlimit:2;">
    <g transform="matrix(1,0,0,1,-48.4,-148.7)">
        <path d="M548.4,398.7C548.4,536.8 436.5,648.7 298.4,648.7C160.3,648.7 48.4,536.8 48.4,398.7C48.4,260.6 160.3,148.7 298.4,148.7C436.5,148.7 548.4,260.7 548.4,398.7Z" style="fill:rgb(203,210,218);"/>
        <g transform="matrix(1,0,0,1,-0.0860544,22.3)">
            <g transform="matrix(1,0,0,1,1.88605,-8.57287)">
                <path d="M401.2,307.4L192,307.4C226.7,367.8 261.5,428.1 297,488.5C330.9,428.1 365.6,367.7 401.2,307.4Z" style="fill:rgb(2,2,3);"/>
            </g>
            <g transform="matrix(1,0,0,1,0,-22.25)">
                <g transform="matrix(1,0,0,1,0,19.4271)">
                    <path d="M246.6,261.9C245.8,260.2 245.8,259.4 244.9,258.6C238.3,246.2 231.7,234.6 225.1,222.2C221.8,215.6 219.3,214.8 212.7,214.8C195.3,216.5 177.1,217.3 159.8,218.1C153.2,218.1 148.2,221.4 144.9,227.2C140.8,233.8 137.5,240.4 133.3,247C120.1,270.2 106.8,293.3 92.8,316.5C89.5,323.1 88.7,328.9 92,335.5C98.6,347.1 103.6,359.5 110.2,371.1C111.9,375.2 114.3,378.5 116,382.7C117.7,386.9 121,388.5 125.9,388.5C140.8,388.5 155.7,388.5 170.5,387.7C173,387.7 173,386.9 172.2,385.2C167.2,374.5 161.5,364.5 154.8,355.4C151.5,349.6 147.4,343.8 144.9,338C139.9,328.1 140.8,318.2 145.7,308.2C148.2,302.4 152.3,296.6 155.6,291.7C159.7,285.1 164.7,279.3 168,272.7C172.1,265.3 177.9,262 186.2,262C206,262.7 226.7,261.9 246.6,261.9Z" style="fill:rgb(2,2,3);"/>
                </g>
                <g transform="matrix(1,0,0,1,0,19.4271)">
                    <path d="M425.2,387.6L425.2,388.4L473.2,388.4C475.7,388.4 477.3,386.7 479,385.1C479.8,383.4 480.7,381.8 481.5,380.1C488.9,364.4 496.4,347.9 504.7,333C508,326.4 508,320.6 503.9,314.8C493.2,296.6 482.4,278.4 471.7,261.1C465.1,249.5 458.5,237.9 451.9,227.2C448.6,221.4 443.6,218.1 436.2,218.1C428.8,218.1 420.5,217.3 413,217.3C403.9,216.5 394.8,216.5 385.7,215.6C379.9,214.8 375,216.4 372.5,223C371.7,225.5 370,228 368.4,230.4C362.6,240.3 357.7,250.2 351.9,261C351.1,262.7 351.1,263.5 353.6,263.5C361.9,263.5 370.1,264.3 377.6,264.3C386.7,263.5 395.8,262.6 405.7,263.5C418.1,263.5 428,268.5 434.6,279.2C437.9,284.2 440.4,289.1 443.7,294.9C447,302.3 450.3,309.8 455.3,316.4C459.4,323 459.4,329.6 455.3,336.2C450.3,343.6 446.2,351.9 442.1,360.2C435.9,367.7 430.1,377.7 425.2,387.6Z" style="fill:rgb(2,2,3);"/>
                </g>
                <path d="M370.6,476.9C363.2,487.6 356.5,498.4 351.6,509.1C348.3,515.7 345,522.3 340,528.1C335,534.7 328.4,538.8 320.2,539.7C314.4,540.5 308.6,540.5 302.8,540.5C292.9,539.7 283,538.8 272.2,538.8C264.8,538.8 259,536.3 255.7,529.7C246.6,512.3 235.9,495.8 225.9,478.4C225.9,477.6 225.1,476.7 224.2,476.7C215.9,489.9 207.7,503.2 199.4,517.2C197.7,519.7 197.7,522.2 199.4,525.5C200.2,527.2 201.1,528.8 201.9,529.6C211.8,544.5 221.7,558.5 230.8,573.4C234.9,580 239.9,582.5 247.3,582.5L349.9,582.5C357.3,582.5 362.3,580 365.6,573.4C373,561 381.3,549.4 388.8,537.8C390.5,534.5 392.9,532 394.6,528.7C397.1,524.6 397.1,521.3 394.6,517.1C390.5,510.5 386.3,503 382.2,495.6C378,489.3 374.7,483.5 370.6,476.9Z" style="fill:rgb(2,2,3);"/>
            </g>
        </g>
    </g>
</svg>
