<?xml version="1.0" encoding="UTF-8" standalone="no"?>
<!DOCTYPE svg PUBLIC "-//W3C//DTD SVG 1.1//EN" "http://www.w3.org/Graphics/SVG/1.1/DTD/svg11.dtd">
<svg width="100%" height="100%" viewBox="0 0 500 500" version="1.1" xmlns="http://www.w3.org/2000/svg" xmlns:xlink="http://www.w3.org/1999/xlink" xml:space="preserve" xmlns:serif="http://www.serif.com/" style="fill-rule:evenodd;clip-rule:evenodd;stroke-linejoin:round;stroke-miterlimit:2;">
    <g transform="matrix(1,0,0,1,-47.65,-170.95)">
        <path d="M547.6,418.9C547.6,557 435.7,668.9 297.6,668.9C159.5,668.9 47.6,557 47.6,418.9C47.6,280.8 159.5,168.9 297.6,168.9C435.7,168.9 547.6,280.8 547.6,418.9Z" style="fill:rgb(180,127,191);"/>
        <g transform="matrix(1,0,0,1,0.0511269,-0.00652016)">
            <path d="M303.5,580C315.9,579.2 326.7,579.2 337.4,577.5C380.4,568.4 419.3,549.4 451.5,519.6C478,495.6 498.6,468.3 516,437.7C520.1,431.1 520.1,425.3 516.8,418.7C495.3,374.9 467.2,336 429.2,305.4C384.6,269 334.1,252.5 276.2,259.1C253,261.6 230.7,267.4 209.2,277.3C173.6,293 145.5,317.8 122.4,348.4C106.7,369.1 94.3,390.6 81.1,412.1C79.4,414.6 78.6,417.1 77.8,418.7C75.3,425.3 75.3,431.1 78.6,437.7C80.3,441 81.9,443.5 84.4,446.8C91.8,456.7 99.3,465.8 105.9,475.7C122.4,498 140.6,518.7 163,535.2C206,567.6 253.1,581.7 303.5,580ZM249.3,433.7C269.1,439.5 284.9,435.4 294.8,417.2C305.5,399 298.9,384.1 286.5,369.2C310.5,364.2 337.8,376.6 344.4,404.8C351.8,433.7 335.3,461.9 306.4,468.5C278.2,475 256.7,455.2 249.3,433.7ZM233.8,307.7C225.5,314.3 218.1,320.9 212.3,329.2C192.5,353.2 184.2,380.5 187.5,411.9C192.5,457.4 216.4,488.8 257.8,505.3C313.2,527.6 376.9,497.9 398.4,440.8C415.8,393.7 400.1,340.8 359.5,311C358.7,310.2 357.8,310.2 357,309.3C360.3,307.6 363.6,308.5 366.9,310.1C381.8,317.5 395.8,325.8 409.1,336.6C434.7,357.3 454.6,382.9 470.3,411.8C472.8,415.9 472.8,420.1 470.3,423.4C452.9,449.9 433.9,473.8 409.1,492.9C382.6,512.7 353.7,525.1 320.6,529.3C274.3,535.1 232.1,522.7 194.1,496.2C166.8,477.2 144.5,454 126.3,425.9C122.2,420.1 122.2,415.2 125.5,408.5C140.4,382 158.6,358.1 181.7,338.2C195.8,326.6 210.6,316.7 227.2,309.3C229.7,306.8 231.3,306.8 233.8,307.7Z" style="fill:rgb(2,2,3);"/>
        </g>
    </g>
</svg>
