<?xml version="1.0" encoding="UTF-8" standalone="no"?>
<!DOCTYPE svg PUBLIC "-//W3C//DTD SVG 1.1//EN" "http://www.w3.org/Graphics/SVG/1.1/DTD/svg11.dtd">
<svg width="100%" height="100%" viewBox="0 0 500 500" version="1.1" xmlns="http://www.w3.org/2000/svg" xmlns:xlink="http://www.w3.org/1999/xlink" xml:space="preserve" xmlns:serif="http://www.serif.com/" style="fill-rule:evenodd;clip-rule:evenodd;stroke-linejoin:round;stroke-miterlimit:2;">
    <g transform="matrix(1,0,0,1,-47.65,-170.95)">
        <path d="M551.5,420.9C551.5,559 439.6,670.9 301.5,670.9C163.4,670.9 51.5,559 51.5,420.9C51.5,282.8 163.4,170.9 301.5,170.9C439.6,170.9 551.5,282.9 551.5,420.9Z" style="fill:rgb(36,140,204);"/>
        <g transform="matrix(1,0,0,1,-29.3396,-0.0423806)">
            <path d="M470.4,241.2C459.7,245.3 449.7,249.5 439,253.6C423.3,259.4 408.4,266.8 395.2,277.6C388.6,283.4 382,290 376.2,297.4C360.5,318.9 358.8,341.2 369.6,365.2C377,380.9 387,394.1 397.7,407.4C407.6,419.8 419.2,431.4 428.3,444.6C440.7,461.1 449,479.3 452.3,500C455.6,522.3 452.3,543.8 437.4,562C427.5,574.4 414.2,581.8 400.2,587.6C372.1,599.2 342.3,602.5 311.7,600C278.6,596.7 247.2,588.4 217.4,573.5C189.3,559.4 167,539.6 150.4,512.3C137.2,489.1 130.6,464.3 133,437.1C136.3,390.8 157,353.6 193.4,324.7C221.5,302.4 252.9,286.7 286.8,275.1C324.8,261.9 362.9,252.8 402.6,247C415.8,245.3 429.9,242.9 443.1,242C451.8,241.6 460.7,241.5 470.4,241.2ZM318.7,563C314.1,575.5 287.5,577.3 259.2,567C230.9,556.7 211.6,538.2 216.2,525.7C220.8,513.2 247.4,511.4 275.7,521.7C304,532 323.3,550.5 318.7,563Z" style="fill:rgb(2,2,3);"/>
        </g>
    </g>
</svg>
